<svg xmlns="http://www.w3.org/2000/svg" width="16" height="16" viewBox="0 0 16 16"><g><g opacity=".4"><path d="M8.325 14.006c-.64-.926-.643-2.354-.52-3.445a.395.395 0 0 0-.105-.316L4 6.329a.395.395 0 0 0-.282-.124h-.006a.396.396 0 0 0-.28.116l-.84.84-.596-.596L6.61 1.95l.596.597-.84.84a.396.396 0 0 0 .007.568l3.916 3.7c.085.081.2.12.316.106.37-.042.726-.063 1.06-.063 1.026 0 1.826.195 2.385.582zm6.59-6.031c-.708-.709-1.802-1.068-3.25-1.068-.307 0-.63.016-.965.049L7.212 3.659l.833-.832a.396.396 0 0 0 0-.56L6.889 1.111a.407.407 0 0 0-.56 0L1.157 6.286a.395.395 0 0 0 0 .559L2.31 8a.396.396 0 0 0 .56 0l.833-.833L7 10.656c-.133 1.371-.046 3.15 1.019 4.215a.394.394 0 0 0 .56 0l2.888-2.889 2.213 2.213a.395.395 0 0 0 .56 0 .395.395 0 0 0 0-.56l-2.213-2.212 2.889-2.889a.396.396 0 0 0 0-.56z"/><path fill="none" stroke="#000" stroke-miterlimit="50" d="M8.325 14.006c-.64-.926-.643-2.354-.52-3.445a.395.395 0 0 0-.105-.316L4 6.329a.395.395 0 0 0-.282-.124h-.006a.396.396 0 0 0-.28.116l-.84.84-.596-.596L6.61 1.95l.596.597-.84.84a.396.396 0 0 0 .007.568l3.916 3.7c.085.081.2.12.316.106.37-.042.726-.063 1.06-.063 1.026 0 1.826.195 2.385.582zm6.59-6.031c-.708-.709-1.802-1.068-3.25-1.068-.307 0-.63.016-.965.049L7.212 3.659l.833-.832a.396.396 0 0 0 0-.56L6.889 1.111a.407.407 0 0 0-.56 0L1.157 6.286a.395.395 0 0 0 0 .559L2.31 8a.396.396 0 0 0 .56 0l.833-.833L7 10.656c-.133 1.371-.046 3.15 1.019 4.215a.394.394 0 0 0 .56 0l2.888-2.889 2.213 2.213a.395.395 0 0 0 .56 0 .395.395 0 0 0 0-.56l-2.213-2.212 2.889-2.889a.396.396 0 0 0 0-.56z"/></g></g></svg>