<svg width="22" height="22" viewBox="0 0 22 22" fill="none" xmlns="http://www.w3.org/2000/svg">
<path d="M7.79165 17.4167H7.33331C3.66665 17.4167 1.83331 16.5 1.83331 11.9167V7.33333C1.83331 3.66666 3.66665 1.83333 7.33331 1.83333H14.6666C18.3333 1.83333 20.1666 3.66666 20.1666 7.33333V11.9167C20.1666 15.5833 18.3333 17.4167 14.6666 17.4167H14.2083C13.9241 17.4167 13.6491 17.5542 13.475 17.7833L12.1 19.6167C11.495 20.4233 10.505 20.4233 9.89998 19.6167L8.52498 17.7833C8.37831 17.5817 8.03915 17.4167 7.79165 17.4167Z" stroke="white" stroke-width="1.5" stroke-miterlimit="10" stroke-linecap="round" stroke-linejoin="round"/>
<path d="M6.41669 7.33333H15.5834" stroke="white" stroke-width="1.5" stroke-linecap="round" stroke-linejoin="round"/>
<path d="M6.41669 11.9167H11.9167" stroke="white" stroke-width="1.5" stroke-linecap="round" stroke-linejoin="round"/>
</svg>
